# xmcd CD database file
#
# Track frame offsets:
#	150
#	25220
#	48487
#	66650
#	89802
#	114720
#	137302
#	167587
#	188295
#	215307
#	245917
#	263682
#	286660
#
# Disc length: 4079 seconds
#
# Revision: 4
# Processed by: cddbd v1.5PL3 Copyright (c) Steve Scherf et al.
# Submitted via: CDex 1.51
#
DISCID=ba0fed0d
DTITLE=Ian Parry's CONSORTIUM PROJECT - Consortium Project II-Continuum In Extremis
DYEAR=2001
DGENRE=Hard Rock
TTITLE0=Continuum (In Extremis)
TTITLE1=Asylum Seekers
TTITLE2=The Catalyst
TTITLE3=Intrusions Of Madness
TTITLE4=A Momentary "Lapse Of Reason"
TTITLE5=Mirror Image
TTITLE6=Sentiment In Sanctuary
TTITLE7=What You Sow, You Reap
TTITLE8=Asphyxia
TTITLE9=Collide-O-Scope (When Past And Present Collide)
TTITLE10=Poetic Justice
TTITLE11=A Miracle Is All We Need
TTITLE12=As Strangers Walk By
EXTD=YEAR: 2001
EXTT0=
EXTT1=
EXTT2=
EXTT3=
EXTT4=
EXTT5=
EXTT6=
EXTT7=
EXTT8=
EXTT9=
EXTT10=
EXTT11=
EXTT12=
PLAYORDER=
